<svg width="1000" height="1000" viewBox="0 0 1000 1000" fill="none" xmlns="http://www.w3.org/2000/svg">
<rect width="1000" height="1000" fill="black"/>
<path d="M803.742 519.773C790.871 592.709 751.228 659.996 645.686 659.996C539.113 659.996 494.322 591.168 511.827 492.036C527.787 401.123 586.994 340 681.21 340C773.367 340 808.891 384.686 811.98 453.514L739.902 463.273C738.357 425.264 721.368 406.259 676.061 406.259C623.033 406.259 594.716 442.214 584.934 498.2C574.637 557.782 593.687 595.277 652.893 595.277C706.952 595.277 724.971 569.082 730.12 537.75H653.923L664.735 477.141H811.465L803.742 519.773Z" fill="white"/>
<path d="M269.315 654.859H189L363.017 346.677H450.025L514.381 654.859H438.184C438.184 654.859 401.115 444.268 397.511 419.614H394.422C382.066 444.268 269.315 654.859 269.315 654.859Z" fill="white"/>
</svg>
