<svg xmlns="http://www.w3.org/2000/svg" viewBox="0 0 111 23" aria-label="Kursa"><path d="M 62.533 17.864 C 62.533 20.194 63.656 21.204 65.592 21.204 C 67.051 21.204 68.371 20.109 68.792 18.145 L 68.792 10.21 L 67.727 9.647 C 67.422 9.485 67.537 9.024 67.881 9.024 L 71.317 9.024 L 71.317 20.999 L 72.532 21.899 C 72.788 22.088 72.655 22.495 72.336 22.495 L 68.792 22.495 L 68.792 20.194 C 68.175 21.821 66.603 23 64.694 23 C 61.747 23 60.007 20.951 60.007 18.341 L 60.007 10.21 L 58.942 9.647 C 58.638 9.485 58.752 9.024 59.097 9.024 L 62.533 9.024 Z M 90.33 8.519 C 93.221 8.519 94.989 9.921 95.186 11.661 C 95.242 12.279 94.793 12.84 94.176 12.84 C 93.671 12.84 93.137 12.616 92.912 11.746 C 92.688 10.904 92.154 9.725 90.33 9.725 C 88.983 9.725 87.917 10.511 87.917 11.802 C 87.917 13.514 89.769 14.02 91.2 14.441 C 93.754 15.17 95.551 16.377 95.551 18.678 C 95.551 21.12 93.502 23 90.05 23 C 87.215 23 84.914 21.373 84.745 19.268 C 84.689 18.538 85.111 17.977 85.784 17.977 C 86.317 17.977 86.879 18.257 87.047 19.352 C 87.271 20.811 88.366 21.766 90.05 21.766 C 91.734 21.766 93.081 21.036 93.081 19.464 C 93.081 17.92 91.453 17.247 89.46 16.657 C 87.047 15.956 85.531 14.777 85.531 12.531 C 85.531 10.258 87.412 8.519 90.33 8.519 Z M 102.223 8.519 C 105.899 8.519 107.47 10.875 107.471 13.261 L 107.471 19.913 C 107.471 20.699 107.864 21.4 108.649 21.401 C 108.818 21.401 109.211 21.345 109.407 21.12 C 109.407 21.99 108.565 22.692 107.33 22.692 C 106.152 22.691 105.197 21.765 105.197 20.53 C 104.776 21.765 103.345 23 101.185 23 C 98.687 23 96.806 21.316 96.806 18.678 C 96.806 15.871 98.995 14.356 101.381 14.356 C 103.065 14.356 104.44 15.254 104.945 16.124 L 104.945 13.037 C 104.945 11.578 104.328 9.81 102.223 9.81 C 100.623 9.81 99.921 10.876 99.725 12.251 C 99.556 13.514 98.91 13.879 98.293 13.879 C 97.564 13.879 97.114 13.261 97.114 12.476 C 97.114 10.371 99.079 8.519 102.223 8.519 Z M 19.344 0.943 C 19.464 0.51 20.079 0.51 20.199 0.943 L 22.311 8.571 C 22.397 8.88 22.771 8.999 23.019 8.797 L 29.175 3.801 C 29.524 3.517 30.026 3.874 29.873 4.297 L 27.067 12.065 C 26.959 12.366 27.195 12.679 27.515 12.658 L 36.301 12.078 C 36.761 12.048 36.957 12.652 36.566 12.898 L 29.292 17.465 C 28.983 17.659 29.027 18.122 29.367 18.254 L 38.06 21.64 C 38.517 21.818 38.389 22.497 37.898 22.497 L 25.281 22.497 C 25.026 22.497 24.823 22.282 24.838 22.027 L 25.104 17.559 C 25.133 17.083 24.984 16.612 24.686 16.239 C 23.49 14.74 22.119 13.388 20.602 12.213 L 20.325 11.998 C 20 11.746 19.545 11.746 19.22 11.998 L 18.942 12.213 C 17.426 13.388 16.055 14.74 14.858 16.239 C 14.561 16.612 14.412 17.083 14.44 17.559 L 14.706 22.027 C 14.721 22.282 14.518 22.497 14.263 22.497 L 1.645 22.497 C 1.153 22.497 1.026 21.818 1.483 21.64 L 10.176 18.254 C 10.515 18.121 10.559 17.659 10.25 17.465 L 2.977 12.898 C 2.586 12.652 2.782 12.048 3.242 12.078 L 12.028 12.658 C 12.348 12.679 12.583 12.366 12.475 12.065 L 9.67 4.297 C 9.517 3.874 10.019 3.517 10.368 3.801 L 16.522 8.798 C 16.771 9 17.145 8.88 17.23 8.571 Z M 47.19 2.849 C 47.507 2.849 47.643 3.251 47.391 3.443 L 46.095 4.429 L 46.095 20.915 L 47.391 21.902 C 47.643 22.093 47.507 22.495 47.19 22.495 L 41.902 22.495 C 41.57 22.495 41.445 22.058 41.728 21.883 L 43.288 20.915 L 43.288 4.429 L 41.728 3.46 C 41.445 3.284 41.57 2.849 41.902 2.849 Z M 57.916 2.849 C 58.216 2.849 58.361 3.216 58.143 3.421 L 49.098 11.902 L 59.114 21.931 C 59.322 22.139 59.175 22.495 58.881 22.495 L 53.312 22.495 C 52.99 22.495 52.858 22.08 53.122 21.894 L 54.233 21.112 L 46.095 12.576 L 53.896 4.429 L 52.399 3.457 C 52.123 3.278 52.251 2.849 52.58 2.849 Z M 82.289 8.519 C 84.141 8.519 84.759 9.669 84.759 10.511 C 84.759 11.269 84.253 11.746 83.664 11.746 C 83.243 11.746 83.018 11.605 82.653 11.324 C 82.176 10.96 81.699 10.735 81.054 10.735 C 79.117 10.736 78.5 13.093 78.304 14.356 L 78.304 21.056 L 79.854 21.872 C 80.159 22.033 80.045 22.495 79.7 22.495 L 74.824 22.495 C 74.496 22.495 74.368 22.068 74.642 21.888 L 75.777 21.14 L 75.777 12.672 C 75.777 12.111 75.721 11.802 75.244 11.409 L 74.381 10.677 C 74.189 10.514 74.241 10.205 74.477 10.115 L 78.304 8.658 L 78.304 12.307 C 78.753 10.398 80.184 8.519 82.289 8.519 Z M 102.251 15.591 C 100.707 15.591 99.612 16.77 99.612 18.482 C 99.612 20.25 100.623 21.429 102.251 21.429 C 103.907 21.429 104.945 20.25 104.945 18.482 C 104.945 17.191 104.047 15.591 102.251 15.591 Z" fill="#342F16"/></svg>
